<?xml version="1.0" encoding="UTF-8"?>
<svg viewBox="0 0 1538.5 1870.5" xmlns="http://www.w3.org/2000/svg">
 <g fill-rule="evenodd" stroke="#000" stroke-width="2">
  <g fill="#ff0">
   <path d="m790.94 118.81h5.5772l24.025 12.079q24.025 12.079 31.747 15.828 7.7224 3.7487 52.554 24.366 44.832 20.618 46.334 20.826 1.5015 0.20827 23.81 9.7882 22.309 9.58 34.321 14.162 12.012 4.5817 34.75 12.496 22.738 7.9139 28.744 9.9965 6.0062 2.0826 15.016 4.9982 9.0094 2.9156 23.167 7.0808 14.158 4.1651 36.038 9.9964 21.88 5.8312 42.472 10.413 20.593 4.5816 26.599 5.8312 6.0062 1.2495 38.182 7.0808 32.176 5.8314 40.327 7.0809 8.1512 1.2496 39.898 6.2479 31.747 4.9982 32.176 4.9982 0.42896 0 30.889 5.8314 30.46 5.8313 30.674 6.0395l0.2146 0.2083-1.287 62.062q-1.2871 62.061-6.4353 160.36-5.1482 98.298-8.1512 137.45-3.0032 39.153-6.8643 67.06t-9.0093 52.898-11.154 50.398q-6.0062 25.407-10.725 44.567-4.7191 19.16-11.154 41.235-6.4353 22.076-7.7223 26.657-1.2871 4.5817-3.8612 11.662-2.5741 7.0809-6.0062 17.494-3.432 10.413-10.725 29.989-7.2932 19.576-12.012 31.239-4.7192 11.662-11.584 27.907-6.8641 16.244-17.59 39.153-10.725 22.909-12.87 26.657-2.145 3.7487-15.659 27.282t-16.302 27.907q-2.7887 4.3737-13.299 22.076-10.511 17.702-13.728 22.492-3.2175 4.79-9.8673 14.995t-10.725 15.828q-4.0757 5.6229-9.4384 13.329-5.3627 7.7056-10.296 14.162-4.9336 6.4563-7.7223 10.83-2.7886 4.3734-8.1511 11.246-5.3628 6.8726-10.296 13.745-4.9337 6.8726-10.725 14.162-5.7918 7.2891-9.8674 12.496-4.0757 5.2063-17.375 19.785-13.3 14.578-31.319 33.322-18.019 18.743-31.748 32.072-13.728 13.328-18.233 16.869-4.5048 3.5404-21.022 17.91t-20.164 17.494q-3.6466 3.1239-18.019 15.411t-18.877 15.828q-4.5046 3.5404-10.296 8.3303-5.7917 4.7899-16.088 13.12-10.296 8.3304-15.659 12.287-5.3627 3.9569-10.296 7.0808-4.9337 3.1238-18.019 10.83-13.085 7.7056-17.161 10.413-4.0756 2.7073-9.2238 5.6228-5.1482 2.9158-10.725 6.6644-5.5772 3.7485-8.1512 5.4147-2.5742 1.6661-11.154 5.8313-8.5803 4.1653-20.593 9.5801-12.012 5.4146-16.732 7.0807l-4.7192 1.6661-5.1481-1.2496q-5.1482-1.2494-11.154-4.1652-6.0062-2.9155-20.164-9.9965-14.158-7.0808-16.302-8.747-2.1451-1.6661-10.94-7.2889-8.7948-5.6232-13.299-8.3306-4.5046-2.7073-17.59-10.413-13.085-7.7058-18.019-10.83-4.9336-3.1238-10.296-7.0807-5.3627-3.9569-12.227-9.3718-6.8643-5.4148-18.233-14.786-11.369-9.3718-19.735-16.244-8.3657-6.8726-24.454-20.826-16.088-13.954-20.592-17.494-4.5046-3.5403-19.734-16.66-15.23-13.12-16.946-14.786-1.7161-1.6663-15.23-14.787-13.514-13.12-18.877-18.743-5.3627-5.6229-23.596-24.991t-21.88-23.742q-3.6466-4.3734-10.725-12.912-7.0787-8.5387-11.154-13.745-4.0756-5.2067-8.1513-10.83-4.0757-5.6228-8.5803-11.662-4.5046-6.0394-8.1512-10.83-3.6467-4.7899-6.2207-8.5384-2.5741-3.7488-7.0788-9.7883-4.5046-6.0396-7.7222-10.83-3.2176-4.7899-8.5803-12.496-5.3627-7.7058-8.1513-12.079-2.7886-4.3735-9.0093-13.745-6.2207-9.3717-8.1513-12.912-1.9306-3.5405-10.725-17.91-8.7948-14.37-11.583-18.744-2.7886-4.3733-13.943-23.95t-16.732-29.573q-5.5772-9.9966-9.8673-18.744-4.2901-8.7468-12.012-26.241-7.7223-17.494-7.7223-17.91 0-0.41663-7.7223-19.16-7.7222-18.744-12.012-29.573-4.2901-10.83-12.012-32.905-7.7223-22.076-15.444-47.067-7.7223-24.991-17.161-60.812-9.4383-35.82-13.3-53.314-3.8611-17.493-10.725-50.815-6.8642-33.322-8.1513-43.735-1.287-10.413-5.5772-63.727-4.2901-53.314-5.5772-80.388-1.287-27.074-3.0031-57.48t-4.7192-99.548-3.0031-97.882v-28.74l2.7886-1.4577q2.7886-1.4579 15.23-3.5405t34.321-5.4148 66.497-10.83q44.618-7.4974 63.923-10.83 19.306-3.3322 51.053-10.413t54.914-13.329q23.167-6.2478 39.898-11.662 16.732-5.4148 26.17-8.3304 9.4383-2.9156 18.019-5.8313 8.5803-2.9157 34.321-12.496 25.741-9.5799 48.264-19.368 22.523-9.7882 24.025-9.9965 1.5015-0.20827 21.665-9.3716 20.164-9.1634 36.466-16.661 16.302-7.4973 32.176-14.995 15.874-7.4973 39.469-19.576l23.596-12.079h5.5772z"/>
   <path d="m769.34 132.96h5.5772l24.025 12.079q24.025 12.079 31.747 15.828 7.7224 3.7487 52.554 24.366 44.832 20.618 46.334 20.826 1.5015 0.20827 23.81 9.7882 22.309 9.58 34.321 14.162 12.012 4.5817 34.75 12.496 22.738 7.9139 28.744 9.9965 6.0062 2.0826 15.016 4.9982 9.0094 2.9156 23.167 7.0808 14.158 4.1651 36.038 9.9964 21.88 5.8312 42.472 10.413 20.593 4.5816 26.599 5.8312 6.0062 1.2495 38.182 7.0808 32.176 5.8314 40.327 7.0809 8.1512 1.2496 39.898 6.2479 31.747 4.9982 32.176 4.9982 0.42896 0 30.889 5.8314 30.46 5.8313 30.674 6.0395l0.2146 0.2083-1.287 62.062q-1.2871 62.061-6.4353 160.36-5.1482 98.298-8.1512 137.45-3.0032 39.153-6.8643 67.06t-9.0093 52.898-11.154 50.398q-6.0062 25.407-10.725 44.567-4.7191 19.16-11.154 41.235-6.4353 22.076-7.7223 26.657-1.2871 4.5817-3.8612 11.662-2.5741 7.0809-6.0062 17.494-3.432 10.413-10.725 29.989-7.2932 19.576-12.012 31.239-4.7192 11.662-11.584 27.907-6.8641 16.244-17.59 39.153-10.725 22.909-12.87 26.657-2.145 3.7487-15.659 27.282t-16.302 27.907q-2.7887 4.3737-13.299 22.076-10.511 17.702-13.728 22.492-3.2175 4.79-9.8673 14.995t-10.725 15.828q-4.0757 5.6229-9.4384 13.329-5.3627 7.7056-10.296 14.162-4.9336 6.4563-7.7223 10.83-2.7886 4.3734-8.1511 11.246-5.3628 6.8726-10.296 13.745-4.9337 6.8726-10.725 14.162-5.7918 7.2891-9.8674 12.496-4.0757 5.2063-17.375 19.785-13.3 14.578-31.319 33.322-18.019 18.743-31.748 32.072-13.728 13.328-18.233 16.869-4.5048 3.5404-21.022 17.91t-20.164 17.494q-3.6466 3.1239-18.019 15.411t-18.877 15.828q-4.5046 3.5404-10.296 8.3303-5.7917 4.7899-16.088 13.12-10.296 8.3304-15.659 12.287-5.3627 3.9569-10.296 7.0808-4.9337 3.1238-18.019 10.83-13.085 7.7056-17.161 10.413-4.0756 2.7073-9.2238 5.6228-5.1482 2.9158-10.725 6.6644-5.5772 3.7485-8.1512 5.4147-2.5742 1.6661-11.154 5.8313-8.5803 4.1653-20.593 9.5801-12.012 5.4146-16.732 7.0807l-4.7192 1.6661-5.1481-1.2496q-5.1482-1.2494-11.154-4.1652-6.0062-2.9155-20.164-9.9965-14.158-7.0808-16.302-8.747-2.1451-1.6661-10.94-7.2889-8.7948-5.6232-13.299-8.3306-4.5046-2.7073-17.59-10.413-13.085-7.7058-18.019-10.83-4.9336-3.1238-10.296-7.0807-5.3627-3.9569-12.227-9.3718-6.8643-5.4148-18.233-14.786-11.369-9.3718-19.735-16.244-8.3657-6.8726-24.454-20.826-16.088-13.954-20.592-17.494-4.5046-3.5403-19.734-16.66-15.23-13.12-16.946-14.786-1.7161-1.6663-15.23-14.787-13.514-13.12-18.877-18.743-5.3627-5.6229-23.596-24.991t-21.88-23.742q-3.6466-4.3734-10.725-12.912-7.0787-8.5387-11.154-13.745-4.0756-5.2067-8.1513-10.83-4.0757-5.6228-8.5803-11.662-4.5046-6.0394-8.1512-10.83-3.6467-4.7899-6.2207-8.5384-2.5741-3.7488-7.0788-9.7883-4.5046-6.0396-7.7222-10.83-3.2176-4.7899-8.5803-12.496-5.3627-7.7058-8.1513-12.079-2.7886-4.3735-9.0093-13.745-6.2207-9.3717-8.1513-12.912-1.9306-3.5405-10.725-17.91-8.7948-14.37-11.583-18.744-2.7886-4.3733-13.943-23.95t-16.732-29.573q-5.5772-9.9966-9.8673-18.744-4.2901-8.7468-12.012-26.241-7.7222-17.494-7.7222-17.91 0-0.41663-7.7223-19.16-7.7222-18.744-12.012-29.573-4.2901-10.83-12.012-32.905-7.7223-22.076-15.444-47.067-7.7223-24.991-17.161-60.812-9.4383-35.82-13.3-53.314-3.8611-17.493-10.725-50.815-6.8642-33.322-8.1513-43.735-1.287-10.413-5.5772-63.727-4.2901-53.314-5.5772-80.388-1.287-27.074-3.0031-57.48t-4.7192-99.548-3.0031-97.882v-28.74l2.7886-1.4577q2.7886-1.4579 15.23-3.5405t34.321-5.4148 66.497-10.83q44.618-7.4974 63.923-10.83 19.306-3.3322 51.053-10.413t54.914-13.329q23.167-6.2478 39.898-11.662 16.732-5.4148 26.17-8.3304 9.4383-2.9156 18.019-5.8313 8.5803-2.9156 34.321-12.496 25.741-9.5799 48.264-19.368 22.523-9.7882 24.025-9.9965 1.5015-0.20828 21.665-9.3716 20.164-9.1634 36.466-16.661 16.302-7.4974 32.176-14.995 15.874-7.4973 39.469-19.576l23.596-12.079h5.5772z"/>
  </g>
  <path d="m789.02 60.611h6.0195l25.93 13.038q25.93 13.038 34.265 17.084 8.3347 4.0462 56.722 26.301 48.388 22.254 50.008 22.479 1.6207 0.22479 25.698 10.565 24.078 10.34 37.042 15.286 12.965 4.9454 37.506 13.488 24.541 8.5422 31.024 10.79 6.4827 2.248 16.207 5.3951 9.7238 3.1471 25.004 7.643 15.28 4.496 38.895 10.79 23.615 6.2942 45.841 11.24 22.226 4.9454 28.708 6.2942 6.4825 1.3488 41.21 7.643t43.526 7.643q8.7976 1.3488 43.062 6.7438 34.265 5.395 34.728 5.395 0.46301 0 33.339 6.2942t33.107 6.519l0.2314 0.2248-1.3892 66.988q-1.3892 66.988-6.9456 173.09t-8.7976 148.36q-3.2413 42.261-7.4086 72.383-4.1675 30.122-9.7239 57.096-5.5564 26.975-12.039 54.4-6.4825 27.425-11.576 48.106t-12.039 44.509q-6.9456 23.828-8.3347 28.773-1.3892 4.9454-4.1672 12.588-2.7783 7.6429-6.4827 18.883-3.7042 11.24-11.576 32.37-7.8717 21.131-12.965 33.719-5.0934 12.588-12.502 30.122t-18.985 42.261-13.891 28.773q-2.3153 4.0463-16.901 29.448t-17.595 30.122q-3.0099 4.7207-14.354 23.828t-14.817 24.278q-3.4729 5.1702-10.65 16.185t-11.576 17.084q-4.3989 6.0693-10.187 14.387-5.788 8.3174-11.113 15.286t-8.3347 11.689q-3.0096 4.7207-8.7976 12.139-5.7881 7.4181-11.113 14.836-5.3247 7.4182-11.576 15.286-6.2511 7.8678-10.65 13.488-4.3988 5.6199-18.753 21.355-14.354 15.736-33.802 35.967t-34.265 34.618q-14.818 14.387-19.679 18.208-4.8621 3.8216-22.689 19.332-17.827 15.511-21.762 18.882-3.9358 3.3721-19.447 16.635-15.512 13.263-20.374 17.084-4.8619 3.8216-11.113 8.9918-6.251 5.1704-17.364 14.162-11.113 8.9917-16.901 13.263-5.788 4.2711-11.113 7.6429-5.325 3.3721-19.448 11.689-14.123 8.3174-18.522 11.24-4.3989 2.9224-9.9553 6.0693-5.5565 3.1472-11.576 7.1935t-8.7977 5.8446-12.039 6.2943q-9.2607 4.4957-22.226 10.34-12.965 5.8445-18.058 7.6429l-5.0934 1.7983-5.5565-1.3488q-5.5564-1.3488-12.039-4.4957-6.4825-3.1472-21.763-10.79-15.28-7.6429-17.595-9.4413-2.3152-1.7983-11.808-7.8677-9.4922-6.0695-14.354-8.9918-4.8619-2.9222-18.985-11.24-14.123-8.3175-19.448-11.689-5.325-3.3718-11.113-7.6429-5.7879-4.271-13.196-10.116-7.4086-5.8447-19.679-15.96-12.27-10.116-21.3-17.534-9.0292-7.4181-26.393-22.479t-22.226-18.883q-4.8619-3.8215-21.3-17.984t-18.29-15.96q-1.8522-1.7983-16.438-15.96t-20.374-20.231q-5.788-6.0695-25.467-26.975t-23.615-25.626q-3.9358-4.7207-11.576-13.937-7.6401-9.2166-12.039-14.836-4.3988-5.6198-8.7977-11.689-4.3988-6.0693-9.2607-12.588-4.8619-6.5189-8.7977-11.689-3.9358-5.1704-6.7141-9.2166-2.7782-4.0463-7.6401-10.565-4.8619-6.5189-8.3347-11.689-3.4728-5.1702-9.2608-13.488-5.788-8.3174-8.7977-13.038-3.0097-4.7207-9.7238-14.836-6.714-10.116-8.7977-13.937-2.0836-3.8214-11.576-19.332-9.4923-15.511-12.502-20.231-3.0097-4.7207-15.049-25.851-12.039-21.131-18.058-31.921-6.0195-10.79-10.65-20.231-4.6304-9.4413-12.965-28.324-8.3347-18.882-8.3347-19.332 0-0.44995-8.3347-20.681t-12.965-31.921q-4.6304-11.69-12.965-35.518-8.3347-23.828-16.669-50.803-8.3347-26.975-18.522-65.64-10.187-38.664-14.354-57.547-4.1673-18.882-11.576-54.849-7.4086-35.966-8.7977-47.206t-6.0195-68.787-6.0195-86.77-3.2413-62.042q-1.8521-32.82-5.0934-107.45-3.2412-74.631-3.2412-105.65v-31.022l3.0097-1.5735q3.0097-1.5736 16.438-3.8215t37.043-5.8445q23.615-3.5967 71.771-11.689 48.156-8.0925 68.993-11.689 20.837-3.5968 55.102-11.24 34.265-7.643 59.269-14.387 25.004-6.7439 43.062-12.588 18.058-5.8447 28.246-8.9918 10.187-3.1471 19.448-6.2942 9.2608-3.1472 37.043-13.488 27.782-10.34 52.091-20.906 24.309-10.565 25.93-10.79 1.6207-0.22479 23.383-10.116 21.763-9.8909 39.358-17.983 17.596-8.0926 34.728-16.185 17.132-8.0926 42.6-21.13l25.467-13.038h6.0195v1.1e-5z"/>
  <path d="m791.56 125.56h5.5772l24.025 12.079q24.025 12.079 31.747 15.828 7.7224 3.7487 52.554 24.366 44.832 20.618 46.334 20.826 1.5015 0.20827 23.81 9.7882 22.309 9.58 34.321 14.162 12.012 4.5817 34.75 12.496 22.738 7.9139 28.744 9.9965 6.0062 2.0826 15.016 4.9982 9.0094 2.9156 23.167 7.0808 14.158 4.1651 36.038 9.9964 21.88 5.8312 42.472 10.413 20.593 4.5816 26.599 5.8312 6.0062 1.2495 38.182 7.0808 32.176 5.8314 40.327 7.0809 8.1512 1.2496 39.898 6.2479 31.747 4.9982 32.176 4.9982 0.42896 0 30.889 5.8314 30.46 5.8313 30.674 6.0395l0.2146 0.2083-1.287 62.062q-1.2871 62.061-6.4353 160.36-5.1482 98.298-8.1512 137.45-3.0032 39.153-6.8643 67.06t-9.0093 52.898-11.154 50.398q-6.0062 25.407-10.725 44.567-4.7191 19.16-11.154 41.235-6.4353 22.076-7.7223 26.657-1.2871 4.5817-3.8612 11.662-2.5741 7.0809-6.0062 17.494-3.432 10.413-10.725 29.989-7.2932 19.576-12.012 31.239-4.7192 11.662-11.584 27.907-6.8641 16.244-17.59 39.153-10.725 22.909-12.87 26.657-2.145 3.7487-15.659 27.282t-16.302 27.907q-2.7887 4.3737-13.299 22.076-10.511 17.702-13.728 22.492-3.2175 4.79-9.8673 14.995t-10.725 15.828q-4.0757 5.6229-9.4384 13.329-5.3627 7.7056-10.296 14.162-4.9336 6.4563-7.7223 10.83-2.7886 4.3734-8.1511 11.246-5.3628 6.8726-10.296 13.745-4.9337 6.8726-10.725 14.162-5.7918 7.2891-9.8674 12.496-4.0757 5.2063-17.375 19.785-13.3 14.578-31.319 33.322-18.019 18.743-31.748 32.072-13.728 13.328-18.233 16.869-4.5048 3.5404-21.022 17.91t-20.164 17.494q-3.6466 3.1239-18.019 15.411t-18.877 15.828q-4.5046 3.5404-10.296 8.3303-5.7917 4.7899-16.088 13.12-10.296 8.3304-15.659 12.287-5.3627 3.9569-10.296 7.0808-4.9337 3.1238-18.019 10.83-13.085 7.7056-17.161 10.413-4.0756 2.7073-9.2238 5.6228-5.1482 2.9158-10.725 6.6644-5.5772 3.7485-8.1512 5.4147-2.5742 1.6661-11.154 5.8313-8.5803 4.1653-20.593 9.5801-12.012 5.4146-16.732 7.0807l-4.7192 1.6661-5.1481-1.2496q-5.1482-1.2494-11.154-4.1652-6.0062-2.9155-20.164-9.9965-14.158-7.0808-16.302-8.747-2.1451-1.6661-10.94-7.2889-8.7948-5.6232-13.299-8.3306-4.5046-2.7073-17.59-10.413-13.085-7.7058-18.019-10.83-4.9336-3.1238-10.296-7.0807-5.3627-3.9569-12.227-9.3718-6.8643-5.4148-18.233-14.786-11.369-9.3718-19.735-16.244-8.3657-6.8726-24.454-20.826-16.088-13.954-20.592-17.494-4.5046-3.5403-19.734-16.66-15.23-13.12-16.946-14.786-1.7161-1.6663-15.23-14.787-13.514-13.12-18.877-18.743-5.3627-5.6229-23.596-24.991t-21.88-23.742q-3.6466-4.3734-10.725-12.912-7.0787-8.5387-11.154-13.745-4.0756-5.2067-8.1513-10.83-4.0757-5.6228-8.5803-11.662-4.5046-6.0394-8.1512-10.83-3.6467-4.7899-6.2207-8.5384-2.5741-3.7488-7.0788-9.7883-4.5046-6.0396-7.7222-10.83-3.2176-4.7899-8.5803-12.496-5.3627-7.7058-8.1513-12.079-2.7886-4.3735-9.0093-13.745-6.2207-9.3717-8.1513-12.912-1.9306-3.5405-10.725-17.91-8.7948-14.37-11.583-18.744-2.7886-4.3733-13.943-23.95t-16.732-29.573q-5.5772-9.9966-9.8673-18.744-4.2901-8.7468-12.012-26.241-7.7223-17.494-7.7223-17.91 0-0.41663-7.7223-19.16-7.7222-18.744-12.012-29.573-4.2901-10.83-12.012-32.905-7.7223-22.076-15.444-47.067-7.7223-24.991-17.161-60.812-9.4383-35.82-13.3-53.314-3.8611-17.493-10.725-50.815-6.8642-33.322-8.1513-43.735-1.287-10.413-5.5772-63.727-4.2901-53.314-5.5772-80.388-1.287-27.074-3.0031-57.48t-4.7192-99.548-3.0031-97.882v-28.74l2.7886-1.4577q2.7886-1.4579 15.23-3.5405t34.321-5.4148 66.497-10.83q44.618-7.4974 63.923-10.83 19.306-3.3322 51.053-10.413t54.914-13.329q23.167-6.2478 39.898-11.662 16.732-5.4148 26.17-8.3304 9.4383-2.9156 18.019-5.8313 8.5802-2.9156 34.321-12.496 25.741-9.5799 48.264-19.368 22.523-9.7882 24.025-9.9965 1.5015-0.20828 21.665-9.3716 20.164-9.1634 36.466-16.661 16.302-7.4974 32.176-14.995 15.874-7.4973 39.469-19.576l23.596-12.079h5.5772z" fill="#bfbfbf"/>
  <path d="m789.67 170h5.1725l22.281 11.37q22.281 11.37 29.443 14.899 7.1619 3.5288 48.74 22.937 41.579 19.408 42.971 19.604 1.3926 0.19604 22.082 9.214 20.69 9.018 31.83 13.331 11.141 4.313 32.228 11.762 21.088 7.4497 26.658 9.4101 5.5703 1.9606 13.926 4.7051 8.3556 2.7446 21.486 6.6654t33.422 9.4101q20.292 5.4891 39.39 9.8021 19.098 4.3129 24.669 5.4891 5.5704 1.1762 35.411 6.6654 29.841 5.4894 37.401 6.6655 7.5597 1.1763 37.003 5.8815 29.443 4.705 29.841 4.705 0.39783 0 28.647 5.4893 28.25 5.4893 28.448 5.6852l0.1991 0.196-1.1936 58.421q-1.1937 58.421-5.9683 150.95-4.7747 92.532-7.5597 129.39-2.7853 36.856-6.3662 63.126-3.5808 26.27-8.3555 49.795-4.7745 23.525-10.345 47.442-5.5704 23.917-9.947 41.952-4.3767 18.036-10.345 38.816-5.9683 20.781-7.1619 25.094-1.1937 4.3129-3.5809 10.978-2.3873 6.6654-5.5704 16.468-3.1829 9.8019-9.9469 28.23t-11.141 29.407q-4.3768 10.978-10.743 26.27-6.366 15.291-16.313 36.856-9.9469 21.565-11.936 25.094-1.9894 3.5288-14.523 25.682-12.533 22.153-15.119 26.27-2.5863 4.1171-12.334 20.781-9.7482 16.664-12.732 21.172-2.984 4.509-9.1512 14.115-6.1671 9.6062-9.947 14.899-3.7799 5.2931-8.7533 12.547-4.9735 7.2535-9.5492 13.331-4.5756 6.0775-7.1619 10.194-2.5862 4.1168-7.5596 10.586-4.9736 6.4694-9.5492 12.939-4.5757 6.4695-9.947 13.331-5.3715 6.8614-9.1514 11.762-3.7799 4.9009-16.114 18.624t-29.046 31.367q-16.711 17.644-29.444 30.191-12.732 12.547-16.91 15.879-4.1779 3.3328-19.496 16.86t-18.7 16.468q-3.3821 2.9406-16.711 14.507t-17.507 14.899q-4.1777 3.3326-9.5491 7.8417-5.3714 4.5089-14.92 12.351-9.5492 7.8417-14.523 11.566-4.9735 3.7247-9.5491 6.6654-4.5757 2.9406-16.711 10.194-12.135 7.2535-15.915 9.8021-3.7798 2.5485-8.5544 5.293-4.7745 2.7448-9.947 6.2734-5.1725 3.5287-7.5597 5.097-2.3874 1.5685-10.345 5.4893-7.9576 3.9209-19.098 9.0181-11.141 5.0969-15.517 6.6654l-4.3767 1.5684-4.7745-1.1763q-4.7745-1.1762-10.345-3.9209-5.5704-2.7445-18.7-9.41-13.13-6.6654-15.119-8.2339-1.9894-1.5684-10.146-6.8613-8.1566-5.2933-12.334-7.8419-4.1777-2.5485-16.313-9.802-12.135-7.2538-16.711-10.194-4.5756-2.9406-9.549-6.6653-4.9736-3.7248-11.34-8.822-6.3661-5.0972-16.91-13.919-10.544-8.822-18.302-15.291-7.7586-6.4694-22.679-19.604t-19.098-16.468q-4.1777-3.3326-18.302-15.683-14.125-12.351-15.716-13.919-1.5915-1.5685-14.125-13.919-12.533-12.35-17.507-17.644-4.9735-5.2931-21.884-23.525t-20.292-22.349q-3.382-4.1168-9.947-12.154-6.565-8.0377-10.345-12.939-3.7798-4.9012-7.5597-10.194-3.78-5.293-7.9577-10.978-4.1777-5.6852-7.5597-10.194-3.382-4.5089-5.7693-8.0375-2.3873-3.5289-6.565-9.2142-4.1777-5.6852-7.1619-10.194-2.984-4.5089-7.9575-11.762-4.9734-7.2538-7.5596-11.37-2.5862-4.1169-8.3555-12.939-5.7693-8.8219-7.5597-12.155-1.7905-3.3329-9.947-16.859-8.1566-13.527-10.743-17.644-2.5862-4.1167-12.931-22.545t-15.517-27.838q-5.1725-9.4102-9.1512-17.644-3.9788-8.2338-11.141-24.701-7.1619-16.468-7.1619-16.86 0-0.39209-7.1619-18.036-7.1617-17.644-11.141-27.838-3.9788-10.194-11.141-30.975-7.1619-20.781-14.324-44.306-7.1619-23.525-15.915-57.244-8.7534-33.719-12.334-50.186-3.5809-16.467-9.947-47.834-6.366-31.367-7.5597-41.169-1.1936-9.802-5.1725-59.989-3.9788-50.187-5.1724-75.673-1.1937-25.486-2.7852-54.108-1.5916-28.622-4.3767-93.708-2.7852-65.086-2.7852-92.14v-27.054l2.5862-1.3722q2.5862-1.3723 14.125-3.3328 11.539-1.9604 31.83-5.0971 20.292-3.1368 61.672-10.194 41.38-7.0576 59.284-10.194 17.905-3.1367 47.348-9.8022t50.929-12.547q21.486-5.8813 37.003-10.978 15.517-5.0971 24.271-7.8417 8.7533-2.7446 16.711-5.4893 7.9576-2.7446 31.83-11.762 23.873-9.0179 44.761-18.232 20.889-9.214 22.281-9.41 1.3925-0.19611 20.093-8.8219 18.7-8.6259 33.82-15.683 15.119-7.0576 29.841-14.115 14.722-7.0576 36.605-18.428l21.883-11.37h5.1725z"/>
 </g>
</svg>
